<?xml version="1.0" encoding="utf-8"?>
<!-- Generator: Adobe Illustrator 23.0.3, SVG Export Plug-In . SVG Version: 6.00 Build 0)  -->
<svg version="1.1" id="Layer_1" xmlns="http://www.w3.org/2000/svg" xmlns:xlink="http://www.w3.org/1999/xlink" x="0px" y="0px"
	 viewBox="0 0 50 50" style="enable-background:new 0 0 50 50;" xml:space="preserve">
<style type="text/css">
	.st0{fill:#38486B;}
</style>
	<g>
	<path class="st0" d="M8.59,14.13v19.28H7.37V15.76l-3.24,2.66v-1.49l3.32-2.79H8.59z"/>
		<path class="st0" d="M12.55,28.99V18.64c0-2.85,1.88-4.79,4.54-4.79c2.66,0,4.54,1.94,4.54,4.79v10.35c0,2.85-1.88,4.79-4.54,4.79
		C14.43,33.77,12.55,31.83,12.55,28.99z M20.43,28.99V18.64c0-2.21-1.36-3.62-3.35-3.62s-3.32,1.41-3.32,3.62v10.35
		c0,2.21,1.33,3.62,3.32,3.62S20.43,31.2,20.43,28.99z"/>
		<path class="st0" d="M25.05,28.99V18.64c0-2.85,1.88-4.79,4.54-4.79c2.66,0,4.54,1.94,4.54,4.79v10.35c0,2.85-1.88,4.79-4.54,4.79
		C26.93,33.77,25.05,31.83,25.05,28.99z M32.94,28.99V18.64c0-2.21-1.36-3.62-3.35-3.62s-3.32,1.41-3.32,3.62v10.35
		c0,2.21,1.33,3.62,3.32,3.62S32.94,31.2,32.94,28.99z"/>
		<path class="st0" d="M36.29,19.86v-3.21c0-1.69,0.69-2.74,1.67-2.74c0.99,0,1.66,1.05,1.66,2.74v3.21c0,1.66-0.67,2.71-1.66,2.71
		C36.98,22.57,36.29,21.52,36.29,19.86z M45.27,14.13h0.8l-8.83,19.36h-0.8L45.27,14.13z M38.95,19.86v-3.21
		c0-1.16-0.37-1.77-0.99-1.77c-0.61,0-1,0.61-1,1.77v3.21c0,1.13,0.39,1.74,1,1.74C38.58,21.6,38.95,20.99,38.95,19.86z M42.89,31
		v-3.21c0-1.69,0.69-2.74,1.67-2.74c0.99,0,1.67,1.05,1.67,2.74V31c0,1.69-0.69,2.71-1.67,2.71C43.58,33.72,42.89,32.69,42.89,31z
		 M45.55,31v-3.21c0-1.16-0.37-1.77-0.99-1.77s-0.99,0.61-0.99,1.77V31c0,1.13,0.37,1.74,0.99,1.74S45.55,32.14,45.55,31z"/>
</g>
</svg>
