<?xml version="1.0" encoding="utf-8"?>
<!-- Generator: Adobe Illustrator 23.0.3, SVG Export Plug-In . SVG Version: 6.00 Build 0)  -->
<svg version="1.1" id="Layer_1" xmlns="http://www.w3.org/2000/svg" xmlns:xlink="http://www.w3.org/1999/xlink" x="0px" y="0px"
	 viewBox="0 0 50 50" style="enable-background:new 0 0 50 50;" xml:space="preserve">
<style type="text/css">
	.st0{fill:none;stroke:#38486B;stroke-linecap:round;stroke-linejoin:round;}
</style>
	<g>
	<path class="st0" d="M7.65,43.84H6.72v-0.05C7.03,43.82,7.34,43.84,7.65,43.84c5.03,0,9.11-4.31,9.11-9.63
		c0-1.38-0.27-2.7-0.77-3.89h-0.16c-5.03,0-9.11-4.31-9.11-9.63v-1.85"/>
		<polyline class="st0" points="6.72,20.69 6.72,18.84 6.72,5.32 31.13,5.32 31.13,18.84 31.13,20.69 	"/>
		<path class="st0" d="M6.72,18.84V5.32h24.41v13.52v1.85c0,5.32-4.08,9.63-9.11,9.63c-0.36,0-0.71-0.02-1.06-0.08
		c-0.5,1.19-0.81,2.59-0.81,3.97c0,5.32,4.07,9.63,9.1,9.63h1.88v-0.21c-0.61,0.14-1.23,0.21-1.88,0.21"/>
		<line class="st0" x1="35.34" y1="5.32" x2="35.34" y2="15.19"/>
		<line class="st0" x1="39.17" y1="5.32" x2="39.17" y2="15.19"/>
		<path class="st0" d="M43.27,5.32v9.87c0,0,0.45,5.44-4.1,6.77v22.72"/>
</g>
</svg>
