<?xml version="1.0" encoding="utf-8"?>
<!-- Generator: Adobe Illustrator 23.0.3, SVG Export Plug-In . SVG Version: 6.00 Build 0)  -->
<svg version="1.1" id="Layer_1" xmlns="http://www.w3.org/2000/svg" xmlns:xlink="http://www.w3.org/1999/xlink" x="0px" y="0px"
	 viewBox="0 0 50 50" style="enable-background:new 0 0 50 50;" xml:space="preserve">
<style type="text/css">
	.st0{fill:none;stroke:#38486B;stroke-linecap:round;stroke-linejoin:round;stroke-miterlimit:10;}
	.st1{fill:none;stroke:#38486B;stroke-linecap:round;stroke-miterlimit:10;}
</style>
	<g>
	<g>
		<line class="st0" x1="6.24" y1="7.36" x2="2.29" y2="11.31"/>
		<line class="st0" x1="11.8" y1="7.72" x2="2.38" y2="17.13"/>
		<line class="st0" x1="17.53" y1="7.72" x2="4.26" y2="20.99"/>
		<line class="st0" x1="23.09" y1="7.18" x2="14.93" y2="15.34"/>
		<line class="st0" x1="29.37" y1="7.36" x2="20.49" y2="16.24"/>
		<line class="st0" x1="34.57" y1="7.72" x2="23.45" y2="18.84"/>
		<line class="st0" x1="41.03" y1="7.72" x2="33.94" y2="14.8"/>
		<line class="st0" x1="46.05" y1="7.54" x2="38.25" y2="15.34"/>
		<line class="st1" x1="46.34" y1="13.45" x2="41.14" y2="18.65"/>
	</g>
		<path class="st0" d="M44.3,48.07H6.24c-1.88,0-3.41-1.53-3.41-3.41v-1.6c0-1.88,1.53-3.41,3.41-3.41H44.3
		c1.88,0,3.41,1.53,3.41,3.41v1.6C47.71,46.54,46.18,48.07,44.3,48.07z"/>
		<circle class="st0" cx="14.49" cy="33.01" r="10.85"/>
		<circle class="st0" cx="14.49" cy="33.01" r="7.96"/>
		<path class="st0" d="M35.78,22.16c-5.99,0-10.85,4.86-10.85,10.85c0,5.99,4.86,10.85,10.85,10.85S46.63,39,46.63,33.01
		C46.63,27.01,41.78,22.16,35.78,22.16z M35.78,40.96c-4.39,0-7.96-3.56-7.96-7.96s3.56-7.96,7.96-7.96s7.96,3.56,7.96,7.96
		S40.18,40.96,35.78,40.96z"/>
		<line class="st0" x1="3.64" y1="4.78" x2="46.63" y2="4.78"/>
		<line class="st0" x1="19.85" y1="2.96" x2="30.82" y2="2.96"/>
		<line class="st0" x1="20.61" y1="1.93" x2="29.83" y2="1.93"/>
		<polyline class="st0" points="42.15,47.68 42.15,41.8 42.15,39.64 	"/>
		<polyline class="st0" points="36.21,47.68 36.21,43.85 36.21,40.95 36.21,39.64 	"/>
		<polyline class="st0" points="29.87,47.68 29.87,42.11 29.87,39.64 	"/>
		<line class="st0" x1="23.69" y1="47.68" x2="23.69" y2="39.64"/>
		<polyline class="st0" points="17.38,47.68 17.38,43.47 17.38,40.41 17.38,39.64 	"/>
		<polyline class="st0" points="11.47,47.68 11.47,43.43 11.47,40.36 11.47,39.64 	"/>
</g>
</svg>
