<?xml version="1.0" encoding="utf-8"?>
<!-- Generator: Adobe Illustrator 23.0.3, SVG Export Plug-In . SVG Version: 6.00 Build 0)  -->
<svg version="1.1" id="Layer_1" xmlns="http://www.w3.org/2000/svg" xmlns:xlink="http://www.w3.org/1999/xlink" x="0px" y="0px"
	 viewBox="0 0 250 250" style="enable-background:new 0 0 250 250;" xml:space="preserve">
<style type="text/css">
	.st0{fill:none;stroke:#000000;stroke-width:10;stroke-linecap:round;stroke-linejoin:round;stroke-miterlimit:10;}
	.st1{fill:none;stroke:#000000;stroke-width:10;stroke-linecap:round;stroke-miterlimit:10;}
</style>
<g>
	<g>
		<line class="st0" x1="24.24" y1="32.37" x2="4" y2="52.98"/>
		<line class="st0" x1="52.75" y1="34.25" x2="4.46" y2="83.42"/>
		<line class="st0" x1="82.19" y1="34.25" x2="14.12" y2="103.56"/>
		<line class="st0" x1="110.7" y1="31.44" x2="68.85" y2="74.05"/>
		<line class="st0" x1="142.9" y1="32.37" x2="97.36" y2="78.74"/>
		<line class="st0" x1="169.57" y1="34.25" x2="112.54" y2="92.32"/>
		<line class="st0" x1="202.69" y1="34.25" x2="166.35" y2="71.24"/>
		<line class="st0" x1="228.44" y1="33.31" x2="188.43" y2="74.05"/>
		<line class="st0" x1="242.24" y1="53.68" x2="210.97" y2="85.53"/>
		<line class="st1" x1="245" y1="80.14" x2="228.9" y2="96.54"/>
	</g>
	<path class="st0" d="M233.54,245H10.17c-1.88,0-3.41-1.53-3.41-3.41v-37.2c0-1.88,1.53-3.41,3.41-3.41h223.37
		c1.88,0,3.41,1.53,3.41,3.41v37.2C236.95,243.47,235.42,245,233.54,245z"/>
	<ellipse class="st0" cx="66.55" cy="166.32" rx="55.65" ry="56.67"/>
	<ellipse class="st0" cx="66.55" cy="166.32" rx="40.81" ry="41.56"/>
	<path class="st0" d="M175.78,109.65c-30.74,0-55.65,25.37-55.65,56.67c0,31.3,24.92,56.67,55.65,56.67s55.65-25.37,55.65-56.67
		C231.43,135.02,206.52,109.65,175.78,109.65z M175.78,207.88c-22.54,0-40.81-18.61-40.81-41.56s18.27-41.56,40.81-41.56
		s40.81,18.61,40.81,41.56S198.32,207.88,175.78,207.88z"/>
	<line class="st0" x1="10.9" y1="18.89" x2="231.43" y2="18.89"/>
	<line class="st0" x1="94.06" y1="9.42" x2="150.34" y2="9.42"/>
	<line class="st0" x1="97.96" y1="4" x2="145.25" y2="4"/>
	<polyline class="st0" points="208.43,242.95 208.43,212.24 208.43,200.96 	"/>
	<polyline class="st0" points="177.97,242.95 177.97,222.95 177.97,207.8 177.97,200.96 	"/>
	<polyline class="st0" points="145.45,242.95 145.45,213.86 145.45,200.96 	"/>
	<line class="st0" x1="113.75" y1="242.95" x2="113.75" y2="200.96"/>
	<polyline class="st0" points="81.39,242.95 81.39,220.96 81.39,204.98 81.39,200.96 	"/>
	<polyline class="st0" points="51.08,242.95 51.08,220.75 51.08,204.72 51.08,200.96 	"/>
</g>
</svg>
