<?xml version="1.0" encoding="utf-8"?>
<!-- Generator: Adobe Illustrator 23.0.3, SVG Export Plug-In . SVG Version: 6.00 Build 0)  -->
<svg version="1.1" id="Layer_1" xmlns="http://www.w3.org/2000/svg" xmlns:xlink="http://www.w3.org/1999/xlink" x="0px" y="0px"
	 viewBox="0 0 250 250" style="enable-background:new 0 0 250 250;" xml:space="preserve">
<style type="text/css">
	.st0{fill:none;stroke:#000000;stroke-width:15;stroke-linecap:round;stroke-linejoin:round;}
	.st1{fill:none;stroke:#000000;stroke-width:15;stroke-linecap:round;stroke-linejoin:round;}
</style>
<g>
	<path class="st0" d="M9.16,241.76H3v-0.31C5.05,241.63,7.11,241.76,9.16,241.76c33.28,0,60.28-26.71,60.28-59.69
		c0-8.55-1.8-16.74-5.1-24.11h-1.06C30,157.96,3,131.24,3,98.27V86.8"/>
	<polyline class="st0" points="3,98.27 3,86.8 3,3 164.56,3 164.56,86.8 164.56,98.27 	"/>
	<path class="st0" d="M3,86.8V3h161.56v83.8v11.47c0,32.98-27,59.69-60.28,59.69c-2.36,0-4.73-0.12-7.03-0.5
		c-3.3,7.38-5.35,16.05-5.35,24.61c0,32.97,26.94,59.69,60.22,59.69h12.44v-1.3c-4.04,0.87-8.15,1.3-12.44,1.3"/>
	<line class="st1" x1="192.43" y1="3" x2="192.43" y2="64.18"/>
	<line class="st1" x1="217.79" y1="3" x2="217.79" y2="64.18"/>
	<path class="st1" d="M244.92,3v61.18c0,0,2.95,33.69-27.13,41.98V247"/>
</g>
</svg>
