<?xml version="1.0" encoding="utf-8"?>
<!-- Generator: Adobe Illustrator 23.0.3, SVG Export Plug-In . SVG Version: 6.00 Build 0)  -->
<svg version="1.1" id="Layer_1" xmlns="http://www.w3.org/2000/svg" xmlns:xlink="http://www.w3.org/1999/xlink" x="0px" y="0px"
	 viewBox="0 0 50 50" style="enable-background:new 0 0 50 50;" xml:space="preserve">
<style type="text/css">
	.st0{fill:none;stroke:#38486B;stroke-linecap:round;stroke-linejoin:round;stroke-miterlimit:10;}
	.st1{fill:#38486B;stroke:#38486B;stroke-linecap:round;stroke-miterlimit:10;}
</style>
	<g>
	<g>
		<g>
			<line class="st0" x1="9.91" y1="39.72" x2="6.68" y2="42.95"/>
			<path class="st0" d="M9.95,39.68l-0.04,0.04c0,0-0.02-0.03-0.04-0.08c-0.02-0.02-0.03-0.05-0.05-0.09
				c-0.68-1.4-4.48-11.66,20.25-28.32c1.53-1.03,3.16-2.08,4.92-3.16c0.27-0.16,0.56-0.34,0.86-0.53c3.2-2.03,8.16-5.34,10.37-4.38
				c0.03,0.01,0.06,0.02,0.09,0.04c0.03,0.01,0.05,0.03,0.08,0.04l-0.04,0.04l-10.5,10.5l-3.65,3.65l-2.13,2.13l-4.45,4.45l-1.3,1.3
				l-4.45,4.45l-5.78,5.78L9.95,39.68"/>
			<line class="st0" x1="9.78" y1="39.59" x2="7.22" y2="42.15"/>
			<path class="st0" d="M9.82,39.55l-0.04,0.04c0,0,0.03,0.02,0.09,0.05c0.02,0.01,0.05,0.02,0.08,0.04
				c0.95,0.46,5.96,2.35,14.25-4.14c3.15-2.45,6.77-6.12,10.82-11.53c1.47-1.96,2.99-4.14,4.57-6.58c0.61-0.94,1.22-1.91,1.84-2.92
				c1.89-3.1,5.96-8.81,4.92-11.23c-0.01-0.03-0.02-0.06-0.04-0.08c-0.01-0.03-0.02-0.06-0.04-0.09l-0.05,0.05L35.85,13.53l-3.9,3.9
				l-1.88,1.88l-4.7,4.7h-0.01l-1.04,1.04l-4.7,4.71l-5.79,5.78L9.82,39.55"/>
		</g>
		<g>
			<line class="st0" x1="13.83" y1="35.54" x2="24.2" y2="35.54"/>
			<line class="st0" x1="19.62" y1="29.76" x2="29.98" y2="29.76"/>
			<polyline class="st0" points="35.02,24.01 25.62,24.01 25.37,24.01 25.36,24.01 			"/>
			<polyline class="st0" points="31.95,17.43 32.2,17.43 39.59,17.43 			"/>
		</g>
		<g>
			<polyline class="st0" points="35.85,7.54 35.85,13.53 35.85,13.78 			"/>
			<polyline class="st0" points="30.07,11.23 30.07,19.31 30.07,19.56 			"/>
			<polyline class="st0" points="24.32,25.31 24.32,25.05 24.32,15.4 			"/>
			<line class="st0" x1="18.35" y1="20.52" x2="18.35" y2="30.88"/>
		</g>
	</g>
		<path class="st1" d="M7.96,40.9c0.38,0.19-0.51,2.41-0.51,2.41l-3.97,3.7C3.48,47.01,7.01,40.43,7.96,40.9z"/>
</g>
</svg>
