<?xml version="1.0" encoding="utf-8"?>
<!-- Generator: Adobe Illustrator 23.0.3, SVG Export Plug-In . SVG Version: 6.00 Build 0)  -->
<svg version="1.1" id="Layer_1" xmlns="http://www.w3.org/2000/svg" xmlns:xlink="http://www.w3.org/1999/xlink" x="0px" y="0px"
	 viewBox="0 0 250 250" style="enable-background:new 0 0 250 250;" xml:space="preserve">
<style type="text/css">
	.st0{fill:none;stroke:#000000;stroke-width:2;stroke-linecap:round;stroke-linejoin:round;stroke-miterlimit:10;}
	.st1{stroke:#000000;stroke-width:0.654;stroke-linecap:round;stroke-miterlimit:10;}
</style>
<g>
	<g>
		<g>
			<line class="st0" x1="39.15" y1="206.46" x2="20.99" y2="224.44"/>
			<path class="st0" d="M39.37,206.23l-0.22,0.22c0,0-0.11-0.17-0.22-0.45c-0.11-0.11-0.17-0.28-0.28-0.5
				c-3.82-7.79-25.19-64.9,113.87-157.64c8.6-5.73,17.77-11.58,27.67-17.59c1.52-0.89,3.15-1.89,4.84-2.95
				c17.99-11.3,45.89-29.72,58.31-24.38c0.17,0.06,0.34,0.11,0.51,0.22c0.17,0.06,0.28,0.17,0.45,0.22l-0.22,0.22l-59.04,58.45
				l-20.52,20.32l-11.98,11.86l-25.02,24.77l-7.31,7.24l-25.02,24.77l-32.5,32.17L39.37,206.23"/>
			<line class="st0" x1="38.42" y1="205.73" x2="24.02" y2="219.98"/>
			<path class="st0" d="M38.64,205.51l-0.22,0.22c0,0,0.17,0.11,0.51,0.28c0.11,0.06,0.28,0.11,0.45,0.22
				c5.34,2.56,33.51,13.08,80.13-23.04c17.71-13.64,38.07-34.07,60.84-64.18c8.27-10.91,16.81-23.04,25.7-36.63
				c3.43-5.23,6.86-10.63,10.35-16.25c10.63-17.26,33.51-49.04,27.67-62.51c-0.06-0.17-0.11-0.33-0.22-0.45
				c-0.06-0.17-0.11-0.33-0.22-0.5l-0.28,0.28l-58.31,57.72l-21.93,21.71l-10.57,10.46l-26.43,26.16h-0.06l-5.85,5.79l-26.43,26.22
				l-32.56,32.17L38.64,205.51"/>
		</g>
		<g>
			<line class="st0" x1="61.22" y1="183.2" x2="119.5" y2="183.2"/>
			<line class="st0" x1="93.73" y1="151.01" x2="152.02" y2="151.01"/>
			<polyline class="st0" points="180.35,119.01 127.49,119.01 126.08,119.01 126.03,119.01 			"/>
			<polyline class="st0" points="163.08,82.38 164.49,82.38 206.05,82.38 			"/>
		</g>
		<g>
			<polyline class="st0" points="185.02,27.33 185.02,60.67 185.02,62.07 			"/>
			<polyline class="st0" points="152.51,47.87 152.51,92.85 152.51,94.24 			"/>
			<polyline class="st0" points="120.18,126.25 120.18,124.8 120.18,71.05 			"/>
			<line class="st0" x1="86.62" y1="99.56" x2="86.62" y2="157.26"/>
		</g>
	</g>
	<path class="st1" d="M28.2,212.99c2.12,1.04-2.87,13.41-2.87,13.41L3,247C3,247,22.86,210.36,28.2,212.99z"/>
</g>
</svg>
