<?xml version="1.0" encoding="utf-8"?>
<!-- Generator: Adobe Illustrator 23.0.3, SVG Export Plug-In . SVG Version: 6.00 Build 0)  -->
<svg version="1.1" id="Layer_1" xmlns="http://www.w3.org/2000/svg" xmlns:xlink="http://www.w3.org/1999/xlink" x="0px" y="0px"
	 viewBox="0 0 250 250" style="enable-background:new 0 0 250 250;" xml:space="preserve">
<style type="text/css">
	.st0{fill:none;stroke:#000000;stroke-width:3;stroke-linecap:round;stroke-linejoin:round;stroke-miterlimit:10;}
</style>
<g>
	<g>
		<g>
			<polygon class="st0" points="64.74,248 3,216.45 3,142.83 64.74,175.08 124.5,142.83 124.5,220.66 			"/>
			<polygon class="st0" points="63.75,109.17 3,142.83 64.74,175.08 124.5,142.83 			"/>
		</g>
		<line class="st0" x1="64.74" y1="175.08" x2="64.74" y2="248"/>
	</g>
	<g>
		<g>
			<polygon class="st0" points="186.24,248 124.5,216.45 124.5,142.83 186.24,175.08 246,142.83 246,220.66 			"/>
			<polygon class="st0" points="185.25,109.17 124.5,142.83 186.24,175.08 246,142.83 			"/>
		</g>
		<line class="st0" x1="186.24" y1="175.08" x2="186.24" y2="248"/>
	</g>
	<g>
		<g>
			<polygon class="st0" points="125.49,142.83 63.75,111.28 63.75,37.66 125.49,69.91 185.25,37.66 185.25,115.48 			"/>
			<polygon class="st0" points="124.5,4 63.75,37.66 125.49,69.91 185.25,37.66 			"/>
		</g>
		<line class="st0" x1="125.49" y1="69.91" x2="125.49" y2="142.83"/>
	</g>
</g>
</svg>
