<?xml version="1.0" encoding="utf-8"?>
<!-- Generator: Adobe Illustrator 23.0.3, SVG Export Plug-In . SVG Version: 6.00 Build 0)  -->
<svg version="1.1" id="Layer_1" xmlns="http://www.w3.org/2000/svg" xmlns:xlink="http://www.w3.org/1999/xlink" x="0px" y="0px"
	 viewBox="0 0 250 250" style="enable-background:new 0 0 250 250;" xml:space="preserve">
<style type="text/css">
	.st0{fill:url(#SVGID_1_);}
</style>
<g>
	<linearGradient id="SVGID_1_" gradientUnits="userSpaceOnUse" x1="25.6893" y1="209.1361" x2="329.0896" y2="-49.2056">
		<stop  offset="1.104800e-03" style="stop-color:#FFE185"/>
		<stop  offset="0.2094" style="stop-color:#FFBB36"/>
		<stop  offset="0.3765" style="stop-color:#FF5176"/>
		<stop  offset="0.5238" style="stop-color:#F63395"/>
		<stop  offset="0.7394" style="stop-color:#A436D2"/>
		<stop  offset="1" style="stop-color:#5F4EED"/>
	</linearGradient>
	<path class="st0" d="M124.5,247C56.95,247,2,192.27,2,125C2,57.73,56.95,3,124.5,3C192.05,3,247,57.73,247,125
		C247,192.27,192.05,247,124.5,247z M124.5,14.59C63.37,14.59,13.64,64.12,13.64,125c0,60.88,49.73,110.41,110.86,110.41
		c61.13,0,110.86-49.53,110.86-110.41C235.36,64.12,185.63,14.59,124.5,14.59z M165.81,75.5c-5.01,0-9.06,4.04-9.06,9.03
		c0,4.99,4.06,9.03,9.06,9.03c5.01,0,9.06-4.04,9.06-9.03C174.87,79.54,170.81,75.5,165.81,75.5z M125.51,87.08
		c-21,0-38.08,17.01-38.08,37.92s17.08,37.92,38.08,37.92c21,0,38.08-17.01,38.08-37.92S146.5,87.08,125.51,87.08z M125.51,149.29
		c-13.45,0-24.39-10.9-24.39-24.29s10.94-24.29,24.39-24.29c13.45,0,24.39,10.9,24.39,24.29S138.96,149.29,125.51,149.29z
		 M202.34,93.48c0-25.54-20.79-46.25-46.45-46.25H94.6c-25.65,0-46.45,20.71-46.45,46.25v61.05c0,25.54,20.79,46.25,46.45,46.25
		h61.3c25.65,0,46.45-20.71,46.45-46.25V93.48z M187.79,154.54c0,17.54-14.28,31.77-31.9,31.77H94.6c-17.62,0-31.9-14.22-31.9-31.77
		V93.48c0-17.54,14.28-31.77,31.9-31.77h61.3c17.62,0,31.9,14.22,31.9,31.77V154.54z"/>
</g>
</svg>
