<?xml version="1.0" encoding="utf-8"?>
<!-- Generator: Adobe Illustrator 23.0.3, SVG Export Plug-In . SVG Version: 6.00 Build 0)  -->
<svg version="1.1" id="Layer_1" xmlns="http://www.w3.org/2000/svg" xmlns:xlink="http://www.w3.org/1999/xlink" x="0px" y="0px"
	 viewBox="0 0 50 50" style="enable-background:new 0 0 50 50;" xml:space="preserve">
<style type="text/css">
	.st0{fill:none;stroke:#38486B;stroke-linecap:round;stroke-linejoin:round;stroke-miterlimit:10;}
	.st1{fill:#38486B;}
</style>
	<g>
	<g>
		<path class="st0" d="M47.73,4.41c0,0-40.24-0.15-33.97,30.02c0.36,1.73,1.63,3.14,3.29,3.73C24.58,40.83,45.67,44.62,47.73,4.41z"
		/>
		<g>
			<path class="st0" d="M47.73,4.41c0,0-9.38,5.75-26.76,25.71c-1.85,2.12-3.78,4.4-5.81,6.85c0,0-6.88,9.55-12.88,8.55"/>
		</g>
	</g>
		<g>
		<g>
			<path class="st1" d="M25.73,24.74c-0.61-2.05-0.72-4.23-0.49-6.38c0.13-1.07,0.23-2.17,0.64-3.18c0.38-1.02,0.92-1.97,1.62-2.81
				c0.02-0.02,0.05-0.02,0.07-0.01c0.01,0.01,0.02,0.03,0.02,0.05c-0.2,1.08-0.52,2.06-0.76,3.07c-0.26,1-0.6,1.97-0.81,2.99
				c-0.21,1.02-0.32,2.05-0.36,3.1c-0.05,1.04-0.02,2.1,0.16,3.14c0.01,0.03-0.01,0.05-0.04,0.06
				C25.76,24.78,25.74,24.76,25.73,24.74z"/>
		</g>
			<g>
			<path class="st1" d="M33.44,28.1c-1.89,1.04-3.9,1.86-6.02,2.4c-1.06,0.26-2.14,0.55-3.26,0.5c-1.11-0.05-2.24-0.27-3.21-0.84
				c-0.02-0.01-0.03-0.05-0.02-0.07c0.01-0.02,0.03-0.03,0.05-0.03c1.1,0.03,2.12,0.01,3.15-0.07c1.03-0.09,2.07-0.12,3.12-0.28
				c1.04-0.16,2.08-0.41,3.1-0.7c1.03-0.28,2.05-0.61,3.04-1c0.03-0.01,0.05,0,0.07,0.03C33.47,28.06,33.46,28.09,33.44,28.1z"/>
		</g>
			<g>
			<path class="st1" d="M42.94,16.64c-0.67,0.71-1.55,1.17-2.45,1.52c-0.91,0.34-1.87,0.56-2.83,0.68c-0.96,0.14-1.94,0.25-2.9,0.14
				c-0.96-0.13-1.91-0.34-2.81-0.75c-0.03-0.01-0.04-0.04-0.03-0.07c0.01-0.02,0.02-0.03,0.04-0.03c0.49-0.07,0.97-0.11,1.44-0.12
				c0.47-0.03,0.94-0.04,1.41-0.03c0.93-0.04,1.85,0.11,2.78,0.06c0.93-0.02,1.85-0.14,2.75-0.36c0.89-0.22,1.8-0.53,2.53-1.11
				l0.01-0.01c0.02-0.02,0.05-0.01,0.07,0.01C42.96,16.59,42.96,16.62,42.94,16.64z"/>
		</g>
	</g>
</g>
</svg>
