<?xml version="1.0" encoding="utf-8"?>
<!-- Generator: Adobe Illustrator 23.0.3, SVG Export Plug-In . SVG Version: 6.00 Build 0)  -->
<svg version="1.1" id="Layer_1" xmlns="http://www.w3.org/2000/svg" xmlns:xlink="http://www.w3.org/1999/xlink" x="0px" y="0px"
	 viewBox="0 0 250 250" style="enable-background:new 0 0 250 250;" xml:space="preserve">
<style type="text/css">
	.st0{fill:none;stroke:#000000;stroke-width:3;stroke-linecap:round;stroke-linejoin:round;stroke-miterlimit:10;}
	.st1{fill:none;stroke:#000000;stroke-width:2;stroke-linecap:round;stroke-linejoin:round;stroke-miterlimit:10;}
</style>
<g>
	<path class="st0" d="M120.7,5.36c0,0-242.63,149.34-21.36,234.4c12.7,4.88,28.87,5.22,42.49,1.14
		C203.36,222.46,353.09,157.55,120.7,5.36z"/>
	<path class="st0" d="M120.7,5.36c0,0-21.37,55.58-4.26,192.08c1.82,14.5,4.07,29.91,6.83,46.26"/>
	<g>
		<path class="st1" d="M112.52,160.15c0,0-43.91-14.57-64.43-50.89"/>
		<path class="st1" d="M178.67,143.68c0,0-22.19,40.53-62.23,53.77"/>
		<path class="st1" d="M166.01,67.16c0,0,1.86,20.04-56.09,46.45"/>
	</g>
</g>
</svg>
