<?xml version="1.0" encoding="utf-8"?>
<!-- Generator: Adobe Illustrator 23.0.3, SVG Export Plug-In . SVG Version: 6.00 Build 0)  -->
<svg version="1.1" id="Layer_1" xmlns="http://www.w3.org/2000/svg" xmlns:xlink="http://www.w3.org/1999/xlink" x="0px" y="0px"
	 viewBox="0 0 250 250" style="enable-background:new 0 0 250 250;" xml:space="preserve">
<style type="text/css">
	.st0{fill:#00B0E7;}
	.st1{fill-rule:evenodd;clip-rule:evenodd;fill:#00B0E7;}
</style>
<g>
	<g>
		<path class="st0" d="M124,247C56.73,247,2,192.27,2,125C2,57.73,56.73,3,124,3c67.27,0,122,54.73,122,122
			C246,192.27,191.27,247,124,247z M124,16.11C63.96,16.11,15.11,64.96,15.11,125c0,60.04,48.85,108.89,108.89,108.89
			c60.05,0,108.89-48.85,108.89-108.89C232.89,64.96,184.04,16.11,124,16.11z"/>
	</g>
	<g>
		<g>
			<path class="st1" d="M94.68,183.06C106.73,183.06,95.26,183.06,94.68,183.06C96.27,183.06,94.62,183.06,94.68,183.06z"/>
		</g>
		<g>
			<path class="st1" d="M94.68,183.06C94.5,183.07,92.34,183.06,94.68,183.06C94.68,183.06,94.31,183.06,94.68,183.06z"/>
		</g>
		<g>
			<path class="st1" d="M99.47,183.18C99.47,182.94,101.99,183.18,99.47,183.18C99.47,183.06,99.78,183.18,99.47,183.18z"/>
		</g>
		<g>
			<path class="st1" d="M149.77,66.61c-0.16,0.12-0.37,0.12-0.59,0C149.39,66.61,149.61,66.61,149.77,66.61z"/>
		</g>
	</g>
</g>
<g>
	<path class="st0" d="M185.88,61.35c-0.56,0-1.13,0.1-1.71,0.32l-148,56.24c-4.18,1.59-4.07,7.54,0.17,8.97l34.31,11.59l20.69,41.41
		c0,0.01,0.01,0.02,0.02,0.03l0.06,0.11l0.01-0.01c0.38,0.76,1.16,1.26,1.99,1.26c0.49,0,0.99-0.16,1.42-0.53l19.38-16.44
		l-21.64-16.43l1.69,21.57l-15.56-32.21l82.7-49.67l-68.83,60.32l53.58,40.66c1.79,1.36,3.85,1.99,5.87,1.99
		c4.25,0,8.34-2.79,9.49-7.39l28.97-115.87C191.28,64.14,188.82,61.35,185.88,61.35z"/>
</g>
</svg>
