<?xml version="1.0" encoding="utf-8"?>
<!-- Generator: Adobe Illustrator 23.0.3, SVG Export Plug-In . SVG Version: 6.00 Build 0)  -->
<svg version="1.1" id="Layer_1" xmlns="http://www.w3.org/2000/svg" xmlns:xlink="http://www.w3.org/1999/xlink" x="0px" y="0px"
	 viewBox="0 0 250 250" style="enable-background:new 0 0 250 250;" xml:space="preserve">
<style type="text/css">
	.st0{fill:#7D3DAF;}
</style>
<g>
	<g>
		<g>
			<path class="st0" d="M124.5,247C57.5,247,3,192.27,3,125C3,57.73,57.5,3,124.5,3C191.5,3,246,57.73,246,125
				C246,192.27,191.5,247,124.5,247z M124.5,16.11C64.7,16.11,16.05,64.96,16.05,125c0,60.04,48.65,108.89,108.45,108.89
				c59.8,0,108.45-48.85,108.45-108.89C232.95,64.96,184.3,16.11,124.5,16.11z"/>
		</g>
	</g>
	<g>
		<path class="st0" d="M198.49,91.17l-0.05-0.18c-3.68-14.94-20.27-30.97-35.51-34.31l-0.17-0.04c-24.65-4.72-49.63-4.72-74.27,0
			l-0.18,0.04C73.08,60.02,56.49,76.05,52.8,90.99l-0.04,0.18c-4.55,20.86-4.55,42.02,0,62.88l0.04,0.18
			c3.53,14.3,18.88,29.6,33.55,33.8v16.68c0,6.04,7.33,9,11.49,4.64l16.83-17.56c3.65,0.21,7.3,0.32,10.95,0.32
			c12.41,0,24.82-1.18,37.14-3.54l0.17-0.04c15.24-3.34,31.83-19.37,35.51-34.31l0.05-0.18
			C203.04,133.19,203.04,112.03,198.49,91.17z M185.17,151.03c-2.46,9.75-15.06,21.86-25.06,24.1c-13.1,2.5-26.31,3.57-39.51,3.2
			c-0.26-0.01-0.51,0.09-0.7,0.28c-1.87,1.93-12.29,12.66-12.29,12.66l-13.07,13.47c-0.96,1-2.63,0.32-2.63-1.06v-27.63
			c0-0.46-0.32-0.84-0.77-0.93c0,0-0.01,0-0.01,0c-10.01-2.24-22.6-14.36-25.06-24.1c-4.09-18.86-4.09-37.98,0-56.83
			c2.46-9.75,15.06-21.86,25.06-24.1c22.89-4.37,46.09-4.37,68.97,0c10.01,2.24,22.61,14.36,25.06,24.1
			C189.27,113.05,189.27,132.17,185.17,151.03z"/>
		<path class="st0" d="M147.4,163.78c-1.54-0.47-3.01-0.78-4.37-1.35c-14.11-5.88-27.1-13.46-37.39-25.09
			c-5.85-6.61-10.43-14.08-14.3-21.98c-1.84-3.75-3.38-7.64-4.96-11.51c-1.44-3.53,0.68-7.17,2.91-9.83c2.09-2.49,4.78-4.4,7.7-5.81
			c2.28-1.1,4.52-0.46,6.18,1.47c3.59,4.19,6.89,8.59,9.57,13.44c1.64,2.99,1.19,6.64-1.79,8.67c-0.72,0.49-1.38,1.07-2.06,1.63
			c-0.59,0.49-1.15,0.98-1.55,1.64c-0.74,1.21-0.78,2.64-0.3,3.96c3.67,10.14,9.86,18.02,20.03,22.26c1.63,0.68,3.26,1.47,5.13,1.25
			c3.14-0.37,4.15-3.82,6.35-5.63c2.15-1.76,4.89-1.79,7.21-0.32c2.31,1.47,4.56,3.05,6.79,4.65c2.19,1.57,4.37,3.1,6.39,4.88
			c1.94,1.72,2.61,3.97,1.52,6.3c-2,4.27-4.91,7.82-9.12,10.09C150.16,163.16,148.74,163.37,147.4,163.78
			C145.86,163.31,148.74,163.37,147.4,163.78z"/>
		<path class="st0" d="M125.67,83.34c18.46,0.52,33.62,12.82,36.87,31.15c0.55,3.12,0.75,6.31,1,9.48c0.1,1.33-0.65,2.6-2.08,2.62
			c-1.48,0.02-2.15-1.23-2.24-2.56c-0.19-2.64-0.32-5.29-0.68-7.9c-1.91-13.81-12.88-25.23-26.56-27.68
			c-2.06-0.37-4.17-0.47-6.25-0.69c-1.32-0.14-3.05-0.22-3.34-1.87c-0.25-1.38,0.92-2.48,2.22-2.55
			C124.95,83.32,125.31,83.33,125.67,83.34C144.13,83.86,125.31,83.33,125.67,83.34z"/>
		<path class="st0" d="M153.72,119.85c-0.03,0.23-0.05,0.78-0.18,1.29c-0.49,1.86-3.3,2.09-3.95,0.22
			c-0.19-0.56-0.22-1.19-0.22-1.79c-0.01-3.93-0.86-7.85-2.83-11.26c-2.03-3.51-5.12-6.46-8.75-8.25c-2.2-1.08-4.57-1.75-6.98-2.15
			c-1.05-0.17-2.12-0.28-3.17-0.43c-1.28-0.18-1.97-1-1.9-2.27c0.06-1.19,0.92-2.04,2.21-1.97c4.24,0.24,8.33,1.16,12.09,3.16
			c7.66,4.07,12.03,10.5,13.31,19.09c0.06,0.39,0.15,0.77,0.18,1.16C153.6,117.62,153.65,118.58,153.72,119.85
			C153.69,120.08,153.65,118.58,153.72,119.85z"/>
		<path class="st0" d="M142.24,119.4c-1.54,0.03-2.37-0.83-2.53-2.25c-0.11-0.99-0.2-2-0.43-2.96c-0.46-1.9-1.47-3.66-3.06-4.82
			c-0.75-0.55-1.6-0.95-2.49-1.21c-1.13-0.33-2.31-0.24-3.44-0.52c-1.23-0.3-1.91-1.3-1.71-2.46c0.18-1.05,1.2-1.87,2.34-1.79
			c7.16,0.52,12.27,4.23,13,12.69c0.05,0.6,0.11,1.23-0.02,1.8C143.66,118.87,142.94,119.36,142.24,119.4
			C140.69,119.43,142.94,119.36,142.24,119.4z"/>
	</g>
</g>
</svg>
