<?xml version="1.0" encoding="utf-8"?>
<!-- Generator: Adobe Illustrator 23.0.3, SVG Export Plug-In . SVG Version: 6.00 Build 0)  -->
<svg version="1.1" id="Layer_1" xmlns="http://www.w3.org/2000/svg" xmlns:xlink="http://www.w3.org/1999/xlink" x="0px" y="0px"
	 viewBox="0 0 250 250" style="enable-background:new 0 0 250 250;" xml:space="preserve">
<style type="text/css">
	.st0{fill:#00FB73;}
	.st1{fill-rule:evenodd;clip-rule:evenodd;fill:#00FB73;}
</style>
<g>
	<g>
		<path class="st0" d="M125,248C57.73,248,3,193.05,3,125.5S57.73,3,125,3c67.27,0,122,54.95,122,122.5S192.27,248,125,248z
			 M125,16.16c-60.05,0-108.89,49.05-108.89,109.34c0,60.29,48.85,109.34,108.89,109.34c60.04,0,108.89-49.05,108.89-109.34
			C233.89,65.21,185.04,16.16,125,16.16z"/>
	</g>
	<g>
		<g>
			<path class="st1" d="M130.76,45.76c-40.62,0-73.66,33.18-73.66,73.96c0,14.35,4.06,28.12,11.76,40.08l-11.19,24.75
				c-1.03,2.28-0.66,4.95,0.96,6.86c1.24,1.46,3.04,2.27,4.89,2.27c0.57,0,1.14-0.08,1.7-0.23l30.83-8.49
				c10.64,5.72,22.58,8.72,34.69,8.72c40.62,0,73.66-33.18,73.66-73.96C204.41,78.94,171.37,45.76,130.76,45.76z M130.76,180.76
				c-10.76,0-21.34-2.87-30.61-8.31c-0.99-0.58-2.12-0.88-3.24-0.88c-0.57,0-1.14,0.08-1.7,0.23l-20.14,5.55l7.01-15.52
				c0.95-2.11,0.71-4.57-0.64-6.45c-7.5-10.44-11.47-22.78-11.47-35.66c0-33.66,27.27-61.04,60.79-61.04s60.79,27.38,60.79,61.04
				C191.55,153.38,164.28,180.76,130.76,180.76z"/>
		</g>
		<g>
			<path class="st1" d="M159.08,130.79c-3.09-1.85-7.1-3.92-10.73-2.43c-2.79,1.15-4.57,5.53-6.37,7.77
				c-0.93,1.15-2.03,1.33-3.46,0.75c-10.47-4.19-18.49-11.2-24.26-20.87c-0.98-1.5-0.8-2.69,0.38-4.08c1.75-2.06,3.94-4.4,4.41-7.18
				c0.47-2.78-0.83-6.03-1.97-8.5c-1.46-3.16-3.1-7.67-6.25-9.46c-2.9-1.64-6.72-0.72-9.31,1.39c-4.46,3.65-6.61,9.36-6.55,15.02
				c0.02,1.61,0.22,3.21,0.59,4.77c0.9,3.74,2.62,7.22,4.55,10.54c1.46,2.5,3.04,4.93,4.76,7.26c5.6,7.64,12.56,14.27,20.62,19.23
				c4.03,2.48,8.37,4.65,12.86,6.14c5.04,1.67,9.53,3.41,14.97,2.37c5.7-1.09,11.32-4.63,13.58-10.14c0.67-1.63,1.01-3.45,0.63-5.17
				C166.75,134.64,161.95,132.52,159.08,130.79z"/>
		</g>
	</g>
</g>
</svg>
