<?xml version="1.0" encoding="utf-8"?>
<!-- Generator: Adobe Illustrator 23.0.3, SVG Export Plug-In . SVG Version: 6.00 Build 0)  -->
<svg version="1.1" id="Layer_1" xmlns="http://www.w3.org/2000/svg" xmlns:xlink="http://www.w3.org/1999/xlink" x="0px" y="0px"
	 viewBox="0 0 960 560" style="enable-background:new 0 0 960 560;" xml:space="preserve">
<style type="text/css">
	.st0{fill:none;stroke:#000000;stroke-width:2.9085;stroke-linecap:round;stroke-linejoin:round;}
	.st1{fill:none;stroke:#000000;stroke-width:3;stroke-linecap:round;stroke-linejoin:round;}
	.st2{fill:none;stroke:#000000;stroke-width:3;stroke-linecap:round;stroke-linejoin:round;stroke-miterlimit:10;}
	.st3{fill:none;stroke:#000000;stroke-width:3;stroke-linejoin:round;stroke-miterlimit:10;}
	.st4{fill:none;stroke:#000000;stroke-width:3.0202;stroke-linecap:round;stroke-linejoin:round;stroke-miterlimit:10;}
	.st5{fill:none;stroke:#000000;stroke-width:2.0135;stroke-linecap:round;stroke-linejoin:round;stroke-miterlimit:10;}
	.st6{fill:none;stroke:#000000;stroke-width:2;stroke-linecap:round;stroke-linejoin:round;stroke-miterlimit:10;}
	.st7{stroke:#000000;stroke-width:0.654;stroke-linecap:round;stroke-miterlimit:10;}
	.st8{fill:none;stroke:#000000;stroke-width:2;stroke-linecap:round;stroke-miterlimit:10;}
	.st9{font-family:'DINCondensed-Bold';}
	.st10{font-size:56.4527px;}
	.st11{font-family:'PTSans-Bold';}
	.st12{fill:#00B0E7;}
	.st13{fill-rule:evenodd;clip-rule:evenodd;fill:#00B0E7;}
	.st14{fill:#00FB73;}
	.st15{fill-rule:evenodd;clip-rule:evenodd;fill:#00FB73;}
	.st16{fill:url(#SVGID_1_);}
	.st17{fill:#7D3DAF;}
</style>
<g>
	<g>
		<path class="st0" d="M353.17,296.78h-0.93v-0.05C352.54,296.76,352.85,296.78,353.17,296.78c5.03,0,9.11-4.31,9.11-9.63
			c0-1.38-0.27-2.7-0.77-3.89h-0.16c-5.03,0-9.11-4.31-9.11-9.63v-1.85"/>
		<polyline class="st0" points="352.23,273.63 352.23,271.78 352.23,258.26 376.64,258.26 376.64,271.78 376.64,273.63 		"/>
		<path class="st0" d="M352.23,271.78v-13.52h24.41v13.52v1.85c0,5.32-4.08,9.63-9.11,9.63c-0.36,0-0.71-0.02-1.06-0.08
			c-0.5,1.19-0.81,2.59-0.81,3.97c0,5.32,4.07,9.63,9.1,9.63h1.88v-0.21c-0.61,0.14-1.23,0.21-1.88,0.21"/>
		<line class="st1" x1="380.86" y1="258.26" x2="380.86" y2="268.13"/>
		<line class="st1" x1="384.69" y1="258.26" x2="384.69" y2="268.13"/>
		<path class="st1" d="M388.79,258.26v9.87c0,0,0.45,5.44-4.1,6.77v22.72"/>
	</g>
	<g>
		<g>
			<g>
				<polygon class="st2" points="301.9,297.62 291.56,292.51 291.56,280.59 301.9,285.81 311.9,280.59 311.9,293.19 				"/>
				<polygon class="st2" points="301.73,275.14 291.56,280.59 301.9,285.81 311.9,280.59 				"/>
			</g>
			<line class="st2" x1="301.9" y1="285.81" x2="301.9" y2="297.62"/>
		</g>
		<g>
			<g>
				<polygon class="st2" points="322.23,297.62 311.9,292.51 311.9,280.59 322.23,285.81 332.23,280.59 332.23,293.19 				"/>
				<polygon class="st2" points="322.07,275.14 311.9,280.59 322.23,285.81 332.23,280.59 				"/>
			</g>
			<line class="st2" x1="322.23" y1="285.81" x2="322.23" y2="297.62"/>
		</g>
		<g>
			<g>
				<polygon class="st2" points="312.07,280.59 301.73,275.48 301.73,263.55 312.07,268.78 322.07,263.55 322.07,276.16 				"/>
				<polygon class="st2" points="311.9,258.1 301.73,263.55 312.07,268.78 322.07,263.55 				"/>
			</g>
			<line class="st2" x1="312.07" y1="268.78" x2="312.07" y2="280.59"/>
		</g>
	</g>
	<g>
		<polygon class="st3" points="251.67,254.54 254.98,267.87 269.88,261.08 259.26,270.73 266.57,273.58 259.26,276.42 
			271.56,285.68 256.42,281.35 257.01,287.78 251.49,284.2 248.13,297.62 245.8,284.2 231.61,287.93 243.48,276.21 229.81,270.65 
			242.88,269.6 239.92,261.41 246.21,267.7 		"/>
	</g>
	<g>
		<path class="st4" d="M422.37,252.23c0,0-28.08,33.53-3.46,44.54c2.64,1.18,5.65,1.14,8.26-0.1c5.32-2.53,12.97-8.71,6.73-22.17
			c-1.25-2.69-3.01-5.09-5.08-7.2C426.19,264.62,422.1,259.29,422.37,252.23z"/>
		<path class="st5" d="M414.09,281.23c0,0-2.06,10.99,8.28,12.42C428.91,291.04,415.23,282.99,414.09,281.23z"/>
	</g>
	<g>
		<g>
			<g>
				<line class="st6" x1="462.66" y1="290.34" x2="459.43" y2="293.57"/>
				<path class="st6" d="M462.7,290.3l-0.04,0.04c0,0-0.02-0.03-0.04-0.08c-0.02-0.02-0.03-0.05-0.05-0.09
					c-0.68-1.4-4.48-11.66,20.25-28.32c1.53-1.03,3.16-2.08,4.92-3.16c0.27-0.16,0.56-0.34,0.86-0.53c3.2-2.03,8.16-5.34,10.37-4.38
					c0.03,0.01,0.06,0.02,0.09,0.04c0.03,0.01,0.05,0.03,0.08,0.04l-0.04,0.04l-10.5,10.5l-3.65,3.65l-2.13,2.13l-4.45,4.45
					l-1.3,1.3l-4.45,4.45l-5.78,5.78L462.7,290.3"/>
				<line class="st6" x1="462.53" y1="290.21" x2="459.97" y2="292.77"/>
				<path class="st6" d="M462.57,290.17l-0.04,0.04c0,0,0.03,0.02,0.09,0.05c0.02,0.01,0.05,0.02,0.08,0.04
					c0.95,0.46,5.96,2.35,14.25-4.14c3.15-2.45,6.77-6.12,10.82-11.53c1.47-1.96,2.99-4.14,4.57-6.58c0.61-0.94,1.22-1.91,1.84-2.92
					c1.89-3.1,5.96-8.81,4.92-11.23c-0.01-0.03-0.02-0.06-0.04-0.08c-0.01-0.03-0.02-0.06-0.04-0.09l-0.05,0.05l-10.37,10.37
					l-3.9,3.9l-1.88,1.88l-4.7,4.7h-0.01l-1.04,1.04l-4.7,4.71l-5.79,5.78L462.57,290.17"/>
			</g>
			<g>
				<line class="st6" x1="466.58" y1="286.16" x2="476.95" y2="286.16"/>
				<line class="st6" x1="472.37" y1="280.38" x2="482.73" y2="280.38"/>
				<polyline class="st6" points="487.77,274.63 478.37,274.63 478.12,274.63 478.11,274.63 				"/>
				<polyline class="st6" points="484.7,268.05 484.95,268.05 492.34,268.05 				"/>
			</g>
			<g>
				<polyline class="st6" points="488.6,258.16 488.6,264.15 488.6,264.4 				"/>
				<polyline class="st6" points="482.82,261.85 482.82,269.93 482.82,270.18 				"/>
				<polyline class="st6" points="477.07,275.93 477.07,275.67 477.07,266.01 				"/>
				<line class="st6" x1="471.1" y1="271.13" x2="471.1" y2="281.5"/>
			</g>
		</g>
		<path class="st7" d="M460.71,291.51c0.38,0.19-0.51,2.41-0.51,2.41l-3.97,3.7C456.23,297.62,459.76,291.04,460.71,291.51z"/>
	</g>
	<g>
		<path class="st2" d="M532.83,251.56c0,0-28.56,28.35-2.79,45.25c1.48,0.97,3.37,1.07,4.97,0.31
			C542.22,293.69,559.81,281.45,532.83,251.56z"/>
		<path class="st2" d="M532.83,251.56c0,0-2.57,10.69-0.74,37.11c0.19,2.8,0.44,5.79,0.74,8.95"/>
		<g>
			<path class="st6" d="M531.68,281.46c0,0-5.12-2.91-7.47-9.97"/>
			<path class="st6" d="M539.44,278.41c0,0-2.65,7.78-7.34,10.26"/>
			<path class="st6" d="M538.05,263.6c0,0,0.19,3.88-6.62,8.86"/>
		</g>
	</g>
	<g>
		<g>
			<line class="st6" x1="571.28" y1="257.3" x2="567.33" y2="261.24"/>
			<line class="st6" x1="576.84" y1="257.66" x2="567.42" y2="267.07"/>
			<line class="st6" x1="582.58" y1="257.66" x2="569.3" y2="270.93"/>
			<line class="st6" x1="588.14" y1="257.12" x2="579.98" y2="265.28"/>
			<line class="st6" x1="594.41" y1="257.3" x2="585.54" y2="266.17"/>
			<line class="st6" x1="599.61" y1="257.66" x2="588.49" y2="268.77"/>
			<line class="st6" x1="606.07" y1="257.66" x2="598.99" y2="264.74"/>
			<line class="st6" x1="611.09" y1="257.48" x2="603.29" y2="265.28"/>
			<line class="st6" x1="613.78" y1="261.38" x2="607.68" y2="267.47"/>
			<line class="st8" x1="614.32" y1="266.44" x2="611.18" y2="269.58"/>
		</g>
		<path class="st6" d="M609.34,298.01h-38.06c-1.88,0-3.41-1.53-3.41-3.41v-1.6c0-1.88,1.53-3.41,3.41-3.41h38.06
			c1.88,0,3.41,1.53,3.41,3.41v1.6C612.75,296.48,611.22,298.01,609.34,298.01z"/>
		<circle class="st6" cx="579.53" cy="282.94" r="10.85"/>
		<circle class="st6" cx="579.53" cy="282.94" r="7.96"/>
		<path class="st6" d="M600.82,272.09c-5.99,0-10.85,4.86-10.85,10.85c0,5.99,4.86,10.85,10.85,10.85s10.85-4.86,10.85-10.85
			C611.68,276.95,606.82,272.09,600.82,272.09z M600.82,290.9c-4.39,0-7.96-3.56-7.96-7.96s3.56-7.96,7.96-7.96s7.96,3.56,7.96,7.96
			S605.22,290.9,600.82,290.9z"/>
		<line class="st6" x1="568.68" y1="254.72" x2="611.68" y2="254.72"/>
		<line class="st6" x1="584.89" y1="252.9" x2="595.86" y2="252.9"/>
		<line class="st6" x1="585.65" y1="251.86" x2="594.87" y2="251.86"/>
		<polyline class="st6" points="607.19,297.62 607.19,291.74 607.19,289.58 		"/>
		<polyline class="st6" points="601.25,297.62 601.25,293.79 601.25,290.89 601.25,289.58 		"/>
		<polyline class="st6" points="594.91,297.62 594.91,292.05 594.91,289.58 		"/>
		<line class="st6" x1="588.73" y1="297.62" x2="588.73" y2="289.58"/>
		<polyline class="st6" points="582.42,297.62 582.42,293.41 582.42,290.35 582.42,289.58 		"/>
		<polyline class="st6" points="576.51,297.62 576.51,293.37 576.51,290.3 576.51,289.58 		"/>
	</g>
	<g>
		<text transform="matrix(1 0 0 1 634.3204 295.3552)" class="st9 st10">100</text>
		<text transform="matrix(0.6721 0 0 1 698.3204 295.032)" class="st11 st10">%</text>
	</g>
</g>
<g>
	<g>
		<path class="st12" d="M437.08,500.53c-15.05,0-27.29-12.24-27.29-27.29c0-15.05,12.24-27.29,27.29-27.29
			c15.05,0,27.29,12.24,27.29,27.29C464.37,488.29,452.13,500.53,437.08,500.53z M437.08,448.88c-13.43,0-24.36,10.93-24.36,24.36
			c0,13.43,10.93,24.36,24.36,24.36c13.43,0,24.36-10.93,24.36-24.36C461.44,459.81,450.51,448.88,437.08,448.88z"/>
	</g>
	<g>
		<g>
			<path class="st13" d="M430.52,486.23C433.21,486.23,430.65,486.23,430.52,486.23C430.87,486.23,430.5,486.23,430.52,486.23z"/>
		</g>
		<g>
			<path class="st13" d="M430.52,486.23C430.48,486.23,429.99,486.23,430.52,486.23C430.52,486.23,430.43,486.23,430.52,486.23z"/>
		</g>
		<g>
			<path class="st13" d="M431.59,486.26C431.59,486.2,432.15,486.26,431.59,486.26C431.59,486.23,431.66,486.26,431.59,486.26z"/>
		</g>
		<g>
			<path class="st13" d="M442.84,460.18c-0.03,0.03-0.08,0.03-0.13,0C442.76,460.18,442.81,460.18,442.84,460.18z"/>
		</g>
	</g>
</g>
<g>
	<g>
		<path class="st14" d="M583.61,501.01c-15.05,0-27.29-12.24-27.29-27.29s12.24-27.29,27.29-27.29c15.05,0,27.29,12.24,27.29,27.29
			S598.66,501.01,583.61,501.01z M583.61,449.36c-13.43,0-24.36,10.93-24.36,24.36c0,13.43,10.93,24.36,24.36,24.36
			c13.43,0,24.36-10.93,24.36-24.36C607.97,460.29,597.05,449.36,583.61,449.36z"/>
	</g>
	<g>
		<g>
			<path class="st15" d="M584.9,455.96c-9.09,0-16.48,7.39-16.48,16.48c0,3.2,0.91,6.27,2.63,8.93l-2.5,5.51
				c-0.23,0.51-0.15,1.1,0.22,1.53c0.28,0.33,0.68,0.51,1.09,0.51c0.13,0,0.25-0.02,0.38-0.05l6.9-1.89
				c2.38,1.27,5.05,1.94,7.76,1.94c9.09,0,16.48-7.39,16.48-16.48C601.38,463.35,593.99,455.96,584.9,455.96z M584.9,486.03
				c-2.41,0-4.77-0.64-6.85-1.85c-0.22-0.13-0.47-0.2-0.73-0.2c-0.13,0-0.26,0.02-0.38,0.05l-4.51,1.24l1.57-3.46
				c0.21-0.47,0.16-1.02-0.14-1.44c-1.68-2.33-2.57-5.07-2.57-7.95c0-7.5,6.1-13.6,13.6-13.6s13.6,6.1,13.6,13.6
				C598.5,479.93,592.4,486.03,584.9,486.03z"/>
		</g>
		<g>
			<path class="st15" d="M591.24,474.9c-0.69-0.41-1.59-0.87-2.4-0.54c-0.62,0.26-1.02,1.23-1.43,1.73
				c-0.21,0.26-0.46,0.3-0.77,0.17c-2.34-0.93-4.14-2.5-5.43-4.65c-0.22-0.33-0.18-0.6,0.08-0.91c0.39-0.46,0.88-0.98,0.99-1.6
				c0.11-0.62-0.18-1.34-0.44-1.89c-0.33-0.7-0.69-1.71-1.4-2.11c-0.65-0.37-1.5-0.16-2.08,0.31c-1,0.81-1.48,2.09-1.46,3.35
				c0,0.36,0.05,0.72,0.13,1.06c0.2,0.83,0.59,1.61,1.02,2.35c0.33,0.56,0.68,1.1,1.06,1.62c1.25,1.7,2.81,3.18,4.61,4.28
				c0.9,0.55,1.87,1.04,2.88,1.37c1.13,0.37,2.13,0.76,3.35,0.53c1.27-0.24,2.53-1.03,3.04-2.26c0.15-0.36,0.22-0.77,0.14-1.15
				C592.95,475.76,591.88,475.28,591.24,474.9z"/>
		</g>
	</g>
</g>
<g>
	<linearGradient id="SVGID_1_" gradientUnits="userSpaceOnUse" x1="491.609" y1="492.4003" x2="558.8796" y2="435.1202">
		<stop  offset="1.104800e-03" style="stop-color:#FFE185"/>
		<stop  offset="0.2094" style="stop-color:#FFBB36"/>
		<stop  offset="0.3765" style="stop-color:#FF5176"/>
		<stop  offset="0.5238" style="stop-color:#F63395"/>
		<stop  offset="0.7394" style="stop-color:#A436D2"/>
		<stop  offset="1" style="stop-color:#5F4EED"/>
	</linearGradient>
	<path class="st16" d="M513.52,500.86c-14.95,0-27.11-12.16-27.11-27.11c0-14.95,12.16-27.11,27.11-27.11
		c14.95,0,27.11,12.16,27.11,27.11C540.63,488.7,528.47,500.86,513.52,500.86z M513.52,449.21c-13.53,0-24.54,11.01-24.54,24.54
		c0,13.53,11.01,24.54,24.54,24.54c13.53,0,24.54-11.01,24.54-24.54C538.06,460.21,527.05,449.21,513.52,449.21z M522.66,462.74
		c-1.11,0-2.01,0.9-2.01,2.01s0.9,2.01,2.01,2.01s2.01-0.9,2.01-2.01S523.77,462.74,522.66,462.74z M513.74,465.32
		c-4.65,0-8.43,3.78-8.43,8.43s3.78,8.43,8.43,8.43c4.65,0,8.43-3.78,8.43-8.43S518.39,465.32,513.74,465.32z M513.74,479.14
		c-2.98,0-5.4-2.42-5.4-5.4c0-2.98,2.42-5.4,5.4-5.4c2.98,0,5.4,2.42,5.4,5.4C519.14,476.72,516.72,479.14,513.74,479.14z
		 M530.75,466.74c0-5.68-4.6-10.28-10.28-10.28H506.9c-5.68,0-10.28,4.6-10.28,10.28v13.57c0,5.68,4.6,10.28,10.28,10.28h13.57
		c5.68,0,10.28-4.6,10.28-10.28V466.74z M527.53,480.31c0,3.9-3.16,7.06-7.06,7.06H506.9c-3.9,0-7.06-3.16-7.06-7.06v-13.57
		c0-3.9,3.16-7.06,7.06-7.06h13.57c3.9,0,7.06,3.16,7.06,7.06V480.31z"/>
</g>
<g>
	<g>
		<g>
			<path class="st17" d="M360.61,499.53c-15.05,0-27.29-12.24-27.29-27.29c0-15.05,12.24-27.29,27.29-27.29
				c15.05,0,27.29,12.24,27.29,27.29C387.91,487.29,375.66,499.53,360.61,499.53z M360.61,447.88c-13.43,0-24.36,10.93-24.36,24.36
				c0,13.43,10.93,24.36,24.36,24.36c13.43,0,24.36-10.93,24.36-24.36C384.97,458.81,374.05,447.88,360.61,447.88z"/>
		</g>
	</g>
	<g>
		<path class="st17" d="M377.23,464.67l-0.01-0.04c-0.83-3.34-4.55-6.93-7.98-7.67l-0.04-0.01c-5.54-1.06-11.15-1.06-16.68,0
			l-0.04,0.01c-3.42,0.75-7.15,4.33-7.98,7.67l-0.01,0.04c-1.02,4.67-1.02,9.4,0,14.07l0.01,0.04c0.79,3.2,4.24,6.62,7.54,7.56v3.73
			c0,1.35,1.65,2.01,2.58,1.04l3.78-3.93c0.82,0.05,1.64,0.07,2.46,0.07c2.79,0,5.57-0.26,8.34-0.79l0.04-0.01
			c3.42-0.75,7.15-4.33,7.98-7.67l0.01-0.04C378.26,474.07,378.26,469.34,377.23,464.67z M374.24,478.06
			c-0.55,2.18-3.38,4.89-5.63,5.39c-2.94,0.56-5.91,0.8-8.87,0.72c-0.06,0-0.12,0.02-0.16,0.06c-0.42,0.43-2.76,2.83-2.76,2.83
			l-2.94,3.01c-0.21,0.22-0.59,0.07-0.59-0.24v-6.18c0-0.1-0.07-0.19-0.17-0.21c0,0,0,0,0,0c-2.25-0.5-5.08-3.21-5.63-5.39
			c-0.92-4.22-0.92-8.5,0-12.71c0.55-2.18,3.38-4.89,5.63-5.39c5.14-0.98,10.35-0.98,15.49,0c2.25,0.5,5.08,3.21,5.63,5.39
			C375.16,469.57,375.16,473.84,374.24,478.06z"/>
		<path class="st17" d="M365.76,480.92c-0.35-0.1-0.68-0.18-0.98-0.3c-3.17-1.32-6.09-3.01-8.4-5.61c-1.31-1.48-2.34-3.15-3.21-4.92
			c-0.41-0.84-0.76-1.71-1.11-2.57c-0.32-0.79,0.15-1.6,0.65-2.2c0.47-0.56,1.07-0.98,1.73-1.3c0.51-0.25,1.02-0.1,1.39,0.33
			c0.81,0.94,1.55,1.92,2.15,3.01c0.37,0.67,0.27,1.48-0.4,1.94c-0.16,0.11-0.31,0.24-0.46,0.36c-0.13,0.11-0.26,0.22-0.35,0.37
			c-0.17,0.27-0.17,0.59-0.07,0.89c0.83,2.27,2.22,4.03,4.5,4.98c0.37,0.15,0.73,0.33,1.15,0.28c0.7-0.08,0.93-0.86,1.43-1.26
			c0.48-0.39,1.1-0.4,1.62-0.07c0.52,0.33,1.02,0.68,1.53,1.04c0.49,0.35,0.98,0.69,1.44,1.09c0.44,0.38,0.59,0.89,0.34,1.41
			c-0.45,0.95-1.1,1.75-2.05,2.26C366.38,480.78,366.06,480.82,365.76,480.92C365.41,480.81,366.06,480.82,365.76,480.92z"/>
		<path class="st17" d="M360.87,462.92c4.15,0.12,7.55,2.87,8.28,6.97c0.12,0.7,0.17,1.41,0.22,2.12c0.02,0.3-0.15,0.58-0.47,0.59
			c-0.33,0-0.48-0.27-0.5-0.57c-0.04-0.59-0.07-1.18-0.15-1.77c-0.43-3.09-2.89-5.64-5.97-6.19c-0.46-0.08-0.94-0.1-1.4-0.15
			c-0.3-0.03-0.68-0.05-0.75-0.42c-0.06-0.31,0.21-0.55,0.5-0.57C360.71,462.92,360.79,462.92,360.87,462.92
			C365.02,463.04,360.79,462.92,360.87,462.92z"/>
		<path class="st17" d="M367.18,471.09c-0.01,0.05-0.01,0.17-0.04,0.29c-0.11,0.42-0.74,0.47-0.89,0.05
			c-0.04-0.12-0.05-0.27-0.05-0.4c0-0.88-0.19-1.76-0.64-2.52c-0.46-0.79-1.15-1.45-1.97-1.85c-0.49-0.24-1.03-0.39-1.57-0.48
			c-0.24-0.04-0.48-0.06-0.71-0.1c-0.29-0.04-0.44-0.22-0.43-0.51c0.01-0.27,0.21-0.46,0.5-0.44c0.95,0.05,1.87,0.26,2.72,0.71
			c1.72,0.91,2.7,2.35,2.99,4.27c0.01,0.09,0.03,0.17,0.04,0.26C367.15,470.59,367.16,470.8,367.18,471.09
			C367.17,471.14,367.16,470.8,367.18,471.09z"/>
		<path class="st17" d="M364.6,470.99c-0.35,0.01-0.53-0.19-0.57-0.5c-0.02-0.22-0.04-0.45-0.1-0.66c-0.1-0.42-0.33-0.82-0.69-1.08
			c-0.17-0.12-0.36-0.21-0.56-0.27c-0.25-0.07-0.52-0.05-0.77-0.12c-0.28-0.07-0.43-0.29-0.38-0.55c0.04-0.24,0.27-0.42,0.53-0.4
			c1.61,0.12,2.76,0.95,2.92,2.84c0.01,0.13,0.03,0.27,0,0.4C364.92,470.87,364.76,470.98,364.6,470.99
			C364.25,470.99,364.76,470.98,364.6,470.99z"/>
	</g>
</g>
<g>
	<path class="st12" d="M450.92,459c-0.13,0-0.25,0.02-0.38,0.07l-33.11,12.58c-0.94,0.36-0.91,1.69,0.04,2.01l7.68,2.59l4.63,9.26
		c0,0,0,0,0,0.01l0.01,0.02l0,0c0.08,0.17,0.26,0.28,0.45,0.28c0.11,0,0.22-0.04,0.32-0.12l4.34-3.68l-4.84-3.67l0.38,4.83
		l-3.48-7.21l18.5-11.11l-15.4,13.49l11.99,9.1c0.4,0.3,0.86,0.45,1.31,0.45c0.95,0,1.87-0.62,2.12-1.65l6.48-25.92
		C452.13,459.62,451.58,459,450.92,459z"/>
</g>
</svg>
