<svg width="0" height="0" class="hidden">
    <symbol xmlns="http://www.w3.org/2000/svg" viewBox="0 0 250 250" id="100percent">
        <text transform="matrix(1.1998 0 0 1 3 152.291)" font-family="sans-serif">100</text>
        <text transform="matrix(.8064 0 0 1 183.875 151.726)" font-family="sans-serif">%</text>
    </symbol>
    <symbol xmlns="http://www.w3.org/2000/svg" viewBox="0 0 250 250" id="dish">
        <path d="M9.16 241.76H3v-.31c2.05.18 4.11.31 6.16.31 33.28 0 60.28-26.71 60.28-59.69 0-8.55-1.8-16.74-5.1-24.11h-1.06C30 157.96 3 131.24 3 98.27V86.8"></path>
        <path d="M3 98.27V3h161.56v95.27"></path>
        <path d="M3 86.8V3h161.56v95.27c0 32.98-27 59.69-60.28 59.69-2.36 0-4.73-.12-7.03-.5-3.3 7.38-5.35 16.05-5.35 24.61 0 32.97 26.94 59.69 60.22 59.69h12.44v-1.3c-4.04.87-8.15 1.3-12.44 1.3M192.43 3v61.18M217.79 3v61.18M244.92 3v61.18s2.95 33.69-27.13 41.98V247"></path>
    </symbol>
    <symbol xmlns="http://www.w3.org/2000/svg" viewBox="0 0 250 250" id="dishwasher">
        <path d="M24.24 32.37L4 52.98m48.75-18.73L4.46 83.42m77.73-49.17l-68.07 69.31m96.58-72.12L68.85 74.05m74.05-41.68L97.36 78.74m72.21-44.49l-57.03 58.07m90.15-58.07l-36.34 36.99m62.09-37.93l-40.01 40.74m53.81-20.37l-31.27 31.85"></path>
        <path fill="none" stroke="#000" stroke-width="2" stroke-linecap="round" stroke-miterlimit="10" d="M245 80.14l-16.1 16.4"></path>
        <path d="M233.54 245H10.17c-1.88 0-3.41-1.53-3.41-3.41v-37.2c0-1.88 1.53-3.41 3.41-3.41h223.37c1.88 0 3.41 1.53 3.41 3.41v37.2c0 1.88-1.53 3.41-3.41 3.41z"></path>
        <ellipse cx="66.55" cy="166.32" rx="55.65" ry="56.67"></ellipse>
        <ellipse cx="66.55" cy="166.32" rx="40.81" ry="41.56"></ellipse>
        <path d="M175.78 109.65c-30.74 0-55.65 25.37-55.65 56.67s24.92 56.67 55.65 56.67 55.65-25.37 55.65-56.67-24.91-56.67-55.65-56.67zm0 98.23c-22.54 0-40.81-18.61-40.81-41.56s18.27-41.56 40.81-41.56 40.81 18.61 40.81 41.56-18.27 41.56-40.81 41.56zM10.9 18.89h220.53M94.06 9.42h56.28M97.96 4h47.29m63.18 238.95v-41.99m-30.46 41.99v-41.99m-32.52 41.99v-41.99m-31.7 41.99v-41.99m-32.36 41.99v-41.99m-30.31 41.99v-41.99"></path>
    </symbol>
    <symbol xmlns="http://www.w3.org/2000/svg" viewBox="0 0 250 250" id="drop">
        <g fill="none" stroke="#000" stroke-linecap="round" stroke-linejoin="round" stroke-miterlimit="10">
            <path d="M123.22 3s-246.65 178.75-30.4 237.42c23.19 6.29 49.59 6.09 72.54-.54 46.76-13.5 113.93-46.42 59.11-118.17-10.96-14.34-26.44-27.15-44.62-38.38C156.77 69.09 120.83 40.67 123.22 3z" stroke-width="3.02"></path>
            <path d="M50.5 157.63s-18.13 58.57 72.72 66.21c57.46-13.93-62.73-56.82-72.72-66.21z" stroke-width="2.014"></path>
        </g>
    </symbol>
    <symbol xmlns="http://www.w3.org/2000/svg" viewBox="0 0 250 250" id="feather">
        <path d="M39.15 206.46l-18.16 17.98m18.38-18.21l-.22.22s-.11-.17-.22-.45c-.11-.11-.17-.28-.28-.5-3.82-7.79-25.19-64.9 113.87-157.64 8.6-5.73 17.77-11.58 27.67-17.59 1.52-.89 3.15-1.89 4.84-2.95 17.99-11.3 45.89-29.72 58.31-24.38.17.06.34.11.51.22.17.06.28.17.45.22l-.22.22-59.04 58.45-20.52 20.32-11.98 11.86L127.52 119l-7.31 7.24-25.02 24.77-32.5 32.17-23.32 23.05m-.95-.5l-14.4 14.25"></path>
        <path d="M38.64 205.51l-.22.22s.17.11.51.28c.11.06.28.11.45.22 5.34 2.56 33.51 13.08 80.13-23.04 17.71-13.64 38.07-34.07 60.84-64.18 8.27-10.91 16.81-23.04 25.7-36.63 3.43-5.23 6.86-10.63 10.35-16.25 10.63-17.26 33.51-49.04 27.67-62.51-.06-.17-.11-.33-.22-.45-.06-.17-.11-.33-.22-.5l-.28.28-58.31 57.72-21.93 21.71-10.57 10.46L126.11 119h-.06l-5.85 5.79-26.43 26.22-32.56 32.17-22.57 22.33m22.58-22.31h58.28m-25.77-32.19h58.29m28.33-32h-54.32m37.05-36.63h42.97m-21.03-55.05v34.74m-32.51-14.2v46.37m-32.33 32.01v-55.2M86.62 99.56v57.7"></path>
        <path d="M28.2 212.99c2.12 1.04-2.87 13.41-2.87 13.41L3 247s19.86-36.64 25.2-34.01z" stroke="#000" stroke-width=".654" stroke-linecap="round" stroke-miterlimit="10"></path>
    </symbol>
    <symbol xmlns="http://www.w3.org/2000/svg" viewBox="0 0 250 250" id="ic-blocks">
        <path d="M64.74 248L3 216.45v-73.62l61.74 32.25 59.76-32.25v77.83z"></path>
        <path d="M63.75 109.17L3 142.83l61.74 32.25 59.76-32.25zm.99 65.91V248m121.5 0l-61.74-31.55v-73.62l61.74 32.25L246 142.83v77.83z"></path>
        <path d="M185.25 109.17l-60.75 33.66 61.74 32.25L246 142.83zm.99 65.91V248"></path>
        <path d="M125.49 142.83l-61.74-31.55V37.66l61.74 32.25 59.76-32.25v77.82z"></path>
        <path d="M124.5 4L63.75 37.66l61.74 32.25 59.76-32.25zm.99 65.91v72.92"></path>
    </symbol>
    <symbol  xmlns="http://www.w3.org/2000/svg" id="basket" viewBox="0 0 42 32">
        <title>basket</title>
        <path d="M39.5 14h-37c-0.154 0-0.3 0.071-0.395 0.192s-0.128 0.279-0.091 0.429l4.006 16.017c0.096 0.337 0.391 1.362 1.48 1.362h27c1.093 0 1.385-1.026 1.485-1.379l4-16c0.037-0.149 0.004-0.308-0.091-0.429s-0.24-0.192-0.394-0.192zM35.020 30.363c-0.182 0.637-0.37 0.637-0.52 0.637h-27c-0.149 0-0.336 0-0.515-0.621l-3.844-15.379h35.719l-3.84 15.363zM18.5 28c0.276 0 0.5-0.224 0.5-0.5v-9c0-0.276-0.224-0.5-0.5-0.5s-0.5 0.224-0.5 0.5v9c0 0.276 0.224 0.5 0.5 0.5zM11.499 28c0.019 0 0.037-0.001 0.057-0.003 0.274-0.031 0.472-0.278 0.441-0.552l-1-9c-0.030-0.275-0.27-0.469-0.553-0.442-0.274 0.031-0.472 0.278-0.441 0.552l1 9c0.028 0.256 0.245 0.445 0.496 0.445zM24.5 28c0.276 0 0.5-0.224 0.5-0.5v-9c0-0.276-0.224-0.5-0.5-0.5s-0.5 0.224-0.5 0.5v9c0 0.276 0.224 0.5 0.5 0.5zM30.444 27.997c0.020 0.002 0.038 0.003 0.057 0.003 0.251 0 0.468-0.189 0.496-0.445l1-9c0.030-0.274-0.167-0.521-0.441-0.552-0.287-0.028-0.522 0.167-0.553 0.442l-1 9c-0.030 0.274 0.167 0.521 0.441 0.552zM34.5 12c0.116 0 0.232-0.040 0.327-0.122 0.209-0.181 0.231-0.496 0.051-0.705l-9.5-11c-0.181-0.21-0.496-0.231-0.705-0.052-0.209 0.181-0.231 0.496-0.051 0.705l9.5 11c0.099 0.115 0.238 0.174 0.378 0.174zM17.816 0.113c-0.213-0.173-0.528-0.144-0.703 0.071l-9 11c-0.175 0.213-0.144 0.528 0.070 0.704 0.093 0.075 0.206 0.112 0.317 0.112 0.145 0 0.288-0.062 0.387-0.184l9-11c0.175-0.213 0.143-0.528-0.071-0.703zM41.5 10h-4c-0.276 0-0.5 0.224-0.5 0.5s0.224 0.5 0.5 0.5h4c0.276 0 0.5-0.224 0.5-0.5s-0.224-0.5-0.5-0.5zM13.5 11h16c0.276 0 0.5-0.224 0.5-0.5s-0.224-0.5-0.5-0.5h-16c-0.276 0-0.5 0.224-0.5 0.5s0.224 0.5 0.5 0.5zM0.5 11h5c0.276 0 0.5-0.224 0.5-0.5s-0.224-0.5-0.5-0.5h-5c-0.276 0-0.5 0.224-0.5 0.5s0.224 0.5 0.5 0.5z"></path>
    </symbol>
    <symbol xmlns="http://www.w3.org/2000/svg" viewBox="0 0 32 32" id="instagram">
        <path  d="M16 0c-4.347 0-4.889 0.020-6.596 0.096-1.704 0.080-2.864 0.348-3.884 0.744-1.052 0.408-1.945 0.956-2.835 1.845s-1.439 1.781-1.845 2.835c-0.396 1.020-0.665 2.18-0.744 3.884-0.080 1.707-0.096 2.249-0.096 6.596s0.020 4.889 0.096 6.596c0.080 1.703 0.348 2.864 0.744 3.884 0.408 1.051 0.956 1.945 1.845 2.835 0.889 0.888 1.781 1.439 2.835 1.845 1.021 0.395 2.181 0.665 3.884 0.744 1.707 0.080 2.249 0.096 6.596 0.096s4.889-0.020 6.596-0.096c1.703-0.080 2.864-0.349 3.884-0.744 1.051-0.408 1.945-0.957 2.835-1.845 0.888-0.889 1.439-1.78 1.845-2.835 0.395-1.020 0.665-2.181 0.744-3.884 0.080-1.707 0.096-2.249 0.096-6.596s-0.020-4.889-0.096-6.596c-0.080-1.703-0.349-2.865-0.744-3.884-0.408-1.052-0.957-1.945-1.845-2.835-0.889-0.889-1.78-1.439-2.835-1.845-1.020-0.396-2.181-0.665-3.884-0.744-1.707-0.080-2.249-0.096-6.596-0.096zM16 2.88c4.271 0 4.78 0.021 6.467 0.095 1.56 0.073 2.407 0.332 2.969 0.553 0.749 0.289 1.28 0.636 1.843 1.195 0.559 0.56 0.905 1.092 1.195 1.841 0.219 0.563 0.48 1.409 0.551 2.969 0.076 1.688 0.093 2.195 0.093 6.467s-0.020 4.78-0.099 6.467c-0.081 1.56-0.341 2.407-0.561 2.969-0.299 0.749-0.639 1.28-1.199 1.843-0.559 0.559-1.099 0.905-1.84 1.195-0.56 0.219-1.42 0.48-2.98 0.551-1.699 0.076-2.199 0.093-6.479 0.093-4.281 0-4.781-0.020-6.479-0.099-1.561-0.081-2.421-0.341-2.981-0.561-0.759-0.299-1.28-0.639-1.839-1.199-0.561-0.559-0.92-1.099-1.2-1.84-0.22-0.56-0.479-1.42-0.56-2.98-0.060-1.68-0.081-2.199-0.081-6.459 0-4.261 0.021-4.781 0.081-6.481 0.081-1.56 0.34-2.419 0.56-2.979 0.28-0.76 0.639-1.28 1.2-1.841 0.559-0.559 1.080-0.919 1.839-1.197 0.56-0.221 1.401-0.481 2.961-0.561 1.7-0.060 2.2-0.080 6.479-0.080l0.060 0.040zM16 7.784c-4.54 0-8.216 3.68-8.216 8.216 0 4.54 3.68 8.216 8.216 8.216 4.54 0 8.216-3.68 8.216-8.216 0-4.54-3.68-8.216-8.216-8.216zM16 21.333c-2.947 0-5.333-2.387-5.333-5.333s2.387-5.333 5.333-5.333 5.333 2.387 5.333 5.333-2.387 5.333-5.333 5.333zM26.461 7.46c0 1.060-0.861 1.92-1.92 1.92-1.060 0-1.92-0.861-1.92-1.92s0.861-1.919 1.92-1.919c1.057-0.001 1.92 0.86 1.92 1.919z"></path>

    </symbol>
    <symbol xmlns="http://www.w3.org/2000/svg" viewBox="0 0 250 250" id="leaf">
        <path d="M120.7 5.36s-242.63 149.34-21.36 234.4c12.7 4.88 28.87 5.22 42.49 1.14 61.53-18.44 211.26-83.35-21.13-235.54z"></path>
        <path d="M120.7 5.36s-21.37 55.58-4.26 192.08c1.82 14.5 4.07 29.91 6.83 46.26"></path>
        <path d="M112.52 160.15s-43.91-14.57-64.43-50.89m130.58 34.42s-22.19 40.53-62.23 53.77m49.57-130.29s1.86 20.04-56.09 46.45"></path>
    </symbol>
    <symbol xmlns="http://www.w3.org/2000/svg" viewBox="0 0 250 250" id="spark">
        <path fill="none" stroke="#000" stroke-width="3" stroke-linejoin="round" stroke-miterlimit="10" d="M129.71 2l19.19 75.79 86.33-38.6-61.53 54.9 42.35 16.18-42.35 16.18 71.3 52.63-87.79-24.61 3.43 36.57-31.99-20.39L109.18 247l-13.5-76.35-82.23 21.25 68.81-66.66L3 93.62l75.77-5.99L61.6 41.08l36.45 35.77z"></path>
    </symbol>
    <symbol xmlns="http://www.w3.org/2000/svg" viewBox="0 0 250 250" id="telegram">
        <path d="M124 247C56.73 247 2 192.27 2 125 2 57.73 56.73 3 124 3c67.27 0 122 54.73 122 122 0 67.27-54.73 122-122 122zm0-230.89C63.96 16.11 15.11 64.96 15.11 125S63.96 233.89 124 233.89c60.05 0 108.89-48.85 108.89-108.89S184.04 16.11 124 16.11z"></path>
        <path d="M94.68 183.06c12.05 0 .58 0 0 0 1.59 0-.06 0 0 0zm0 0c-.18.01-2.34 0 0 0 0 0-.37 0 0 0zm4.79.12c0-.24 2.52 0 0 0 0-.12.31 0 0 0zm50.3-116.57c-.16.12-.37.12-.59 0h.59zm36.11-5.26c-.56 0-1.13.1-1.71.32l-148 56.24c-4.18 1.59-4.07 7.54.17 8.97l34.31 11.59 20.69 41.41c0 .01.01.02.02.03l.06.11.01-.01c.38.76 1.16 1.26 1.99 1.26.49 0 .99-.16 1.42-.53l19.38-16.44-21.64-16.43 1.69 21.57-15.56-32.21 82.7-49.67-68.83 60.32 53.58 40.66a9.652 9.652 0 0 0 5.87 1.99c4.25 0 8.34-2.79 9.49-7.39l28.97-115.87c.79-3.13-1.67-5.92-4.61-5.92z"></path>
    </symbol>
    <symbol xmlns="http://www.w3.org/2000/svg" viewBox="0 0 250 250" id="viber">
        <path d="M124.5 247C57.5 247 3 192.27 3 125 3 57.73 57.5 3 124.5 3S246 57.73 246 125c0 67.27-54.5 122-121.5 122zm0-230.89C64.7 16.11 16.05 64.96 16.05 125S64.7 233.89 124.5 233.89c59.8 0 108.45-48.85 108.45-108.89S184.3 16.11 124.5 16.11z"></path>
        <path d="M198.49 91.17l-.05-.18c-3.68-14.94-20.27-30.97-35.51-34.31l-.17-.04c-24.65-4.72-49.63-4.72-74.27 0l-.18.04C73.08 60.02 56.49 76.05 52.8 90.99l-.04.18c-4.55 20.86-4.55 42.02 0 62.88l.04.18c3.53 14.3 18.88 29.6 33.55 33.8v16.68c0 6.04 7.33 9 11.49 4.64l16.83-17.56c3.65.21 7.3.32 10.95.32 12.41 0 24.82-1.18 37.14-3.54l.17-.04c15.24-3.34 31.83-19.37 35.51-34.31l.05-.18c4.55-20.85 4.55-42.01 0-62.87zm-13.32 59.86c-2.46 9.75-15.06 21.86-25.06 24.1-13.1 2.5-26.31 3.57-39.51 3.2a.935.935 0 0 0-.7.28c-1.87 1.93-12.29 12.66-12.29 12.66l-13.07 13.47c-.96 1-2.63.32-2.63-1.06v-27.63c0-.46-.32-.84-.77-.93h-.01c-10.01-2.24-22.6-14.36-25.06-24.1-4.09-18.86-4.09-37.98 0-56.83 2.46-9.75 15.06-21.86 25.06-24.1 22.89-4.37 46.09-4.37 68.97 0 10.01 2.24 22.61 14.36 25.06 24.1 4.11 18.86 4.11 37.98.01 56.84z"></path>
        <path d="M147.4 163.78c-1.54-.47-3.01-.78-4.37-1.35-14.11-5.88-27.1-13.46-37.39-25.09-5.85-6.61-10.43-14.08-14.3-21.98-1.84-3.75-3.38-7.64-4.96-11.51-1.44-3.53.68-7.17 2.91-9.83 2.09-2.49 4.78-4.4 7.7-5.81 2.28-1.1 4.52-.46 6.18 1.47 3.59 4.19 6.89 8.59 9.57 13.44 1.64 2.99 1.19 6.64-1.79 8.67-.72.49-1.38 1.07-2.06 1.63-.59.49-1.15.98-1.55 1.64-.74 1.21-.78 2.64-.3 3.96 3.67 10.14 9.86 18.02 20.03 22.26 1.63.68 3.26 1.47 5.13 1.25 3.14-.37 4.15-3.82 6.35-5.63 2.15-1.76 4.89-1.79 7.21-.32 2.31 1.47 4.56 3.05 6.79 4.65 2.19 1.57 4.37 3.1 6.39 4.88 1.94 1.72 2.61 3.97 1.52 6.3-2 4.27-4.91 7.82-9.12 10.09-1.18.66-2.6.87-3.94 1.28-1.54-.47 1.34-.41 0 0zm-21.73-80.44c18.46.52 33.62 12.82 36.87 31.15.55 3.12.75 6.31 1 9.48.1 1.33-.65 2.6-2.08 2.62-1.48.02-2.15-1.23-2.24-2.56-.19-2.64-.32-5.29-.68-7.9-1.91-13.81-12.88-25.23-26.56-27.68-2.06-.37-4.17-.47-6.25-.69-1.32-.14-3.05-.22-3.34-1.87-.25-1.38.92-2.48 2.22-2.55.34-.02.7-.01 1.06 0 18.46.52-.36-.01 0 0z"></path>
        <path d="M153.72 119.85c-.03.23-.05.78-.18 1.29-.49 1.86-3.3 2.09-3.95.22-.19-.56-.22-1.19-.22-1.79-.01-3.93-.86-7.85-2.83-11.26-2.03-3.51-5.12-6.46-8.75-8.25-2.2-1.08-4.57-1.75-6.98-2.15-1.05-.17-2.12-.28-3.17-.43-1.28-.18-1.97-1-1.9-2.27.06-1.19.92-2.04 2.21-1.97 4.24.24 8.33 1.16 12.09 3.16 7.66 4.07 12.03 10.5 13.31 19.09.06.39.15.77.18 1.16.07.97.12 1.93.19 3.2-.03.23-.07-1.27 0 0z"></path>
        <path d="M142.24 119.4c-1.54.03-2.37-.83-2.53-2.25-.11-.99-.2-2-.43-2.96-.46-1.9-1.47-3.66-3.06-4.82-.75-.55-1.6-.95-2.49-1.21-1.13-.33-2.31-.24-3.44-.52-1.23-.3-1.91-1.3-1.71-2.46.18-1.05 1.2-1.87 2.34-1.79 7.16.52 12.27 4.23 13 12.69.05.6.11 1.23-.02 1.8-.24.99-.96 1.48-1.66 1.52-1.55.03.7-.04 0 0z"></path>
    </symbol>
    <symbol xmlns="http://www.w3.org/2000/svg" viewBox="0 0 250 250" id="whatsapp">
        <path d="M125 248C57.73 248 3 193.05 3 125.5S57.73 3 125 3c67.27 0 122 54.95 122 122.5S192.27 248 125 248zm0-231.84c-60.05 0-108.89 49.05-108.89 109.34 0 60.29 48.85 109.34 108.89 109.34s108.89-49.05 108.89-109.34c0-60.29-48.85-109.34-108.89-109.34z"></path>
        <path d="M130.76 45.76c-40.62 0-73.66 33.18-73.66 73.96 0 14.35 4.06 28.12 11.76 40.08l-11.19 24.75a6.48 6.48 0 0 0 .96 6.86 6.424 6.424 0 0 0 4.89 2.27c.57 0 1.14-.08 1.7-.23l30.83-8.49a73.32 73.32 0 0 0 34.69 8.72c40.62 0 73.66-33.18 73.66-73.96.01-40.78-33.03-73.96-73.64-73.96zm0 135c-10.76 0-21.34-2.87-30.61-8.31-.99-.58-2.12-.88-3.24-.88-.57 0-1.14.08-1.7.23l-20.14 5.55 7.01-15.52c.95-2.11.71-4.57-.64-6.45-7.5-10.44-11.47-22.78-11.47-35.66 0-33.66 27.27-61.04 60.79-61.04s60.79 27.38 60.79 61.04-27.27 61.04-60.79 61.04z"></path>
        <path d="M159.08 130.79c-3.09-1.85-7.1-3.92-10.73-2.43-2.79 1.15-4.57 5.53-6.37 7.77-.93 1.15-2.03 1.33-3.46.75-10.47-4.19-18.49-11.2-24.26-20.87-.98-1.5-.8-2.69.38-4.08 1.75-2.06 3.94-4.4 4.41-7.18.47-2.78-.83-6.03-1.97-8.5-1.46-3.16-3.1-7.67-6.25-9.46-2.9-1.64-6.72-.72-9.31 1.39-4.46 3.65-6.61 9.36-6.55 15.02.02 1.61.22 3.21.59 4.77.9 3.74 2.62 7.22 4.55 10.54 1.46 2.5 3.04 4.93 4.76 7.26 5.6 7.64 12.56 14.27 20.62 19.23 4.03 2.48 8.37 4.65 12.86 6.14 5.04 1.67 9.53 3.41 14.97 2.37 5.7-1.09 11.32-4.63 13.58-10.14.67-1.63 1.01-3.45.63-5.17-.78-3.56-5.58-5.68-8.45-7.41z"></path>
    </symbol>
</svg>
<svg class="icon">
<use xlink:href="#100percent"></use>
</svg>
<svg class="icon">
<use xlink:href="#dish"></use>
</svg>
<svg class="icon">
<use xlink:href="#dishwasher"></use>
</svg>
<svg class="icon">
<use xlink:href="#drop"></use>
</svg>
<svg class="icon">
<use xlink:href="#feather"></use>
</svg>
<svg class="icon">
<use xlink:href="#ic-blocks"></use>
</svg>
<svg class="icon">
<use xlink:href="#instagram"></use>
</svg>
<svg class="icon">
<use xlink:href="#leaf"></use>
</svg>
<svg class="icon">
<use xlink:href="#spark"></use>
</svg>
<svg class="icon">
<use xlink:href="#telegram"></use>
</svg>
<svg class="icon">
<use xlink:href="#viber"></use>
</svg>
<svg class="icon">
<use xlink:href="#whatsapp"></use>
</svg>